#N canvas 467 109 826 706 10;
#X declare -lib mrpeach;
#X obj 13 25 tgl 15 0 empty empty empty 17 7 0 10 -262144 -1 -1 1 1
;
#X msg 13 51 \; pd dsp \$1;
#X obj 113 676 dac~ 1 2;
#N canvas 221 284 951 446 osc 1;
#X obj 43 26 udpreceive 8000;
#X obj 43 50 unpackOSC;
#X obj 43 0 import mrpeach;
#X obj 43 134 routeOSC /master;
#X obj 197 139 routeOSC /track1;
#X obj 43 72 s osc;
#X obj 43 111 r osc;
#X obj 197 116 r osc;
#X obj 318 115 r osc;
#X obj 318 138 routeOSC /track2;
#X obj 432 112 r osc;
#X obj 432 135 routeOSC /track3;
#X obj 545 112 r osc;
#X obj 545 135 routeOSC /track4;
#X obj 661 109 r osc;
#X obj 661 134 routeOSC /track5;
#X obj 43 156 s masterOSC;
#X obj 197 161 s trackOSC1;
#X obj 318 160 s trackOSC2;
#X obj 432 157 s trackOSC3;
#X obj 545 157 s trackOSC4;
#X obj 661 157 s trackOSC5;
#X obj 238 -102 r osc;
#X obj 238 -81 routeOSC /play;
#X obj 239 -47 s play;
#X obj 336 -101 r osc;
#X obj 336 -80 routeOSC /pause;
#X obj 336 -59 s pause;
#X obj 436 -100 r osc;
#X obj 436 -79 routeOSC /stop;
#X obj 436 -58 s stop;
#X obj 529 -98 r osc;
#X obj 198 189 r osc;
#X obj 318 188 r osc;
#X obj 432 189 r osc;
#X obj 545 189 r osc;
#X obj 662 187 r osc;
#X obj 198 212 routeOSC /track7;
#X obj 318 211 routeOSC /track8;
#X obj 198 234 s trackOSC7;
#X obj 318 233 s trackOSC8;
#X obj 432 212 routeOSC /track9;
#X obj 432 234 s trackOSC9;
#X obj 545 212 routeOSC /track10;
#X obj 545 234 s trackOSC10;
#X obj 662 212 routeOSC /track11;
#X obj 662 235 s trackOSC11;
#X obj 783 108 r osc;
#X obj 784 186 r osc;
#X obj 783 133 routeOSC /track6;
#X obj 783 156 s trackOSC6;
#X obj 784 211 routeOSC /track12;
#X obj 784 234 s trackOSC12;
#X obj 198 266 r osc;
#X obj 319 265 r osc;
#X obj 433 262 r osc;
#X obj 546 261 r osc;
#X obj 662 259 r osc;
#X obj 199 339 r osc;
#X obj 319 338 r osc;
#X obj 433 339 r osc;
#X obj 546 339 r osc;
#X obj 663 337 r osc;
#X obj 784 257 r osc;
#X obj 785 336 r osc;
#X obj 198 289 routeOSC /track13;
#X obj 198 311 s trackOSC13;
#X obj 319 288 routeOSC /track14;
#X obj 319 310 s trackOSC14;
#X obj 433 285 routeOSC /track15;
#X obj 433 307 s trackOSC15;
#X obj 546 284 routeOSC /track16;
#X obj 546 306 s trackOSC16;
#X obj 662 284 routeOSC /track17;
#X obj 662 307 s trackOSC17;
#X obj 784 282 routeOSC /track18;
#X obj 784 305 s trackOSC18;
#X obj 199 362 routeOSC /track19;
#X obj 199 384 s trackOSC19;
#X obj 319 361 routeOSC /track20;
#X obj 319 383 s trackOSC20;
#X obj 433 362 routeOSC /track21;
#X obj 433 384 s trackOSC21;
#X obj 546 362 routeOSC /track22;
#X obj 546 384 s trackOSC22;
#X obj 663 362 routeOSC /track23;
#X obj 663 385 s trackOSC23;
#X obj 785 361 routeOSC /track23;
#X obj 785 384 s trackOSC23;
#X obj 529 -56 s position_in;
#X obj 529 -77 routeOSC /position;
#X obj 647 -46 print;
#X obj 211 2 print;
#X obj 326 29 print;
#X obj 454 53 print;
#X msg 211 -21 Received OSC: /play;
#X msg 326 6 Received OSC: /pause;
#X msg 454 30 Received OSC: /stop;
#X connect 0 0 1 0;
#X connect 1 0 5 0;
#X connect 3 0 16 0;
#X connect 4 0 17 0;
#X connect 6 0 3 0;
#X connect 7 0 4 0;
#X connect 8 0 9 0;
#X connect 9 0 18 0;
#X connect 10 0 11 0;
#X connect 11 0 19 0;
#X connect 12 0 13 0;
#X connect 13 0 20 0;
#X connect 14 0 15 0;
#X connect 15 0 21 0;
#X connect 22 0 23 0;
#X connect 23 0 24 0;
#X connect 23 0 95 0;
#X connect 25 0 26 0;
#X connect 26 0 27 0;
#X connect 26 0 96 0;
#X connect 28 0 29 0;
#X connect 29 0 30 0;
#X connect 29 0 97 0;
#X connect 31 0 90 0;
#X connect 32 0 37 0;
#X connect 33 0 38 0;
#X connect 34 0 41 0;
#X connect 35 0 43 0;
#X connect 36 0 45 0;
#X connect 37 0 39 0;
#X connect 38 0 40 0;
#X connect 41 0 42 0;
#X connect 43 0 44 0;
#X connect 45 0 46 0;
#X connect 47 0 49 0;
#X connect 48 0 51 0;
#X connect 49 0 50 0;
#X connect 51 0 52 0;
#X connect 53 0 65 0;
#X connect 54 0 67 0;
#X connect 55 0 69 0;
#X connect 56 0 71 0;
#X connect 57 0 73 0;
#X connect 58 0 77 0;
#X connect 59 0 79 0;
#X connect 60 0 81 0;
#X connect 61 0 83 0;
#X connect 62 0 85 0;
#X connect 63 0 75 0;
#X connect 64 0 87 0;
#X connect 65 0 66 0;
#X connect 67 0 68 0;
#X connect 69 0 70 0;
#X connect 71 0 72 0;
#X connect 73 0 74 0;
#X connect 75 0 76 0;
#X connect 77 0 78 0;
#X connect 79 0 80 0;
#X connect 81 0 82 0;
#X connect 83 0 84 0;
#X connect 85 0 86 0;
#X connect 87 0 88 0;
#X connect 90 0 89 0;
#X connect 90 0 91 0;
#X connect 95 0 92 0;
#X connect 96 0 93 0;
#X connect 97 0 94 0;
#X restore 183 30 pd osc input;
#X obj 96 85 r trackOSC1;
#X obj 96 127 track;
#X obj 13 -2 loadbang;
#N canvas 548 145 450 300 solo 0;
#X obj 31 802 +;
#X obj 31 829 +;
#X obj 31 854 min 1;
#X obj 31 881 - 1;
#X obj 31 908 abs;
#X obj 31 959 send mixer_solo_fac;
#X obj 41 935 nbx 5 14 -1e+37 1e+37 0 0 empty empty empty 0 -8 0 10
-262144 -1 -1 1 256;
#X obj 140 22 r trackOSC1;
#X obj 31 726 +;
#X obj 31 753 +;
#X obj 31 780 +;
#X obj 140 66 r trackOSC2;
#X obj 140 111 r trackOSC3;
#X obj 139 158 r trackOSC4;
#X obj 140 229 routeOSC /solo;
#X obj 140 205 r trackOSC5;
#X obj 142 274 routeOSC /solo;
#X obj 142 250 r trackOSC6;
#X obj 143 320 routeOSC /solo;
#X obj 143 296 r trackOSC7;
#X obj 140 44 routeOSC /solo;
#X obj 140 88 routeOSC /solo;
#X obj 140 133 routeOSC /solo;
#X obj 139 182 routeOSC /solo;
#X obj 31 647 +;
#X obj 31 674 +;
#X obj 31 701 +;
#X obj 31 571 +;
#X obj 31 598 +;
#X obj 31 625 +;
#X obj 31 491 +;
#X obj 31 518 +;
#X obj 31 545 +;
#X obj 31 415 +;
#X obj 31 442 +;
#X obj 31 469 +;
#X obj 31 336 +;
#X obj 31 363 +;
#X obj 31 390 +;
#X obj 31 260 +;
#X obj 31 287 +;
#X obj 31 314 +;
#X obj 143 366 routeOSC /solo;
#X obj 143 413 routeOSC /solo;
#X obj 143 461 routeOSC /solo;
#X obj 144 511 routeOSC /solo;
#X obj 143 560 routeOSC /solo;
#X obj 144 607 routeOSC /solo;
#X obj 143 655 routeOSC /solo;
#X obj 144 702 routeOSC /solo;
#X obj 144 752 routeOSC /solo;
#X obj 144 800 routeOSC /solo;
#X obj 142 850 routeOSC /solo;
#X obj 142 899 routeOSC /solo;
#X obj 274 42 routeOSC /solo;
#X obj 275 91 routeOSC /solo;
#X obj 276 145 routeOSC /solo;
#X obj 277 197 routeOSC /solo;
#X obj 277 246 routeOSC /solo;
#X obj 143 342 r trackOSC8;
#X obj 143 389 r trackOSC9;
#X obj 143 437 r trackOSC10;
#X obj 144 487 r trackOSC11;
#X obj 143 536 r trackOSC12;
#X obj 144 583 r trackOSC13;
#X obj 143 631 r trackOSC14;
#X obj 144 678 r trackOSC15;
#X obj 144 728 r trackOSC16;
#X obj 144 776 r trackOSC17;
#X obj 142 826 r trackOSC18;
#X obj 142 875 r trackOSC19;
#X obj 274 18 r trackOSC20;
#X obj 275 67 r trackOSC21;
#X obj 276 121 r trackOSC22;
#X obj 277 173 r trackOSC23;
#X obj 277 222 r trackOSC24;
#X obj 5 183 loadbang;
#X connect 0 0 1 0;
#X connect 1 0 2 0;
#X connect 2 0 3 0;
#X connect 3 0 4 0;
#X connect 4 0 5 0;
#X connect 4 0 6 0;
#X connect 7 0 20 0;
#X connect 8 0 9 0;
#X connect 9 0 10 0;
#X connect 10 0 0 0;
#X connect 11 0 21 0;
#X connect 12 0 22 0;
#X connect 13 0 23 0;
#X connect 14 0 36 1;
#X connect 14 0 39 0;
#X connect 15 0 14 0;
#X connect 16 0 37 1;
#X connect 16 0 39 0;
#X connect 17 0 16 0;
#X connect 18 0 38 1;
#X connect 18 0 39 0;
#X connect 19 0 18 0;
#X connect 20 0 39 0;
#X connect 21 0 39 1;
#X connect 21 0 39 0;
#X connect 22 0 40 1;
#X connect 22 0 39 0;
#X connect 23 0 41 1;
#X connect 23 0 39 0;
#X connect 24 0 25 0;
#X connect 25 0 26 0;
#X connect 26 0 8 0;
#X connect 27 0 28 0;
#X connect 28 0 29 0;
#X connect 29 0 24 0;
#X connect 30 0 31 0;
#X connect 31 0 32 0;
#X connect 32 0 27 0;
#X connect 33 0 34 0;
#X connect 34 0 35 0;
#X connect 35 0 30 0;
#X connect 36 0 37 0;
#X connect 37 0 38 0;
#X connect 38 0 33 0;
#X connect 39 0 40 0;
#X connect 40 0 41 0;
#X connect 41 0 36 0;
#X connect 42 0 33 1;
#X connect 42 0 39 0;
#X connect 43 0 34 1;
#X connect 43 0 39 0;
#X connect 44 0 35 1;
#X connect 44 0 39 0;
#X connect 45 0 30 1;
#X connect 45 0 39 0;
#X connect 46 0 31 1;
#X connect 46 0 39 0;
#X connect 47 0 32 1;
#X connect 47 0 39 0;
#X connect 48 0 27 1;
#X connect 48 0 39 0;
#X connect 49 0 28 1;
#X connect 49 0 39 0;
#X connect 50 0 29 1;
#X connect 50 0 39 0;
#X connect 51 0 24 1;
#X connect 51 0 39 0;
#X connect 52 0 25 1;
#X connect 52 0 39 0;
#X connect 53 0 26 1;
#X connect 53 0 39 0;
#X connect 54 0 8 1;
#X connect 54 0 39 0;
#X connect 55 0 9 1;
#X connect 55 0 39 0;
#X connect 56 0 10 1;
#X connect 56 0 39 0;
#X connect 57 0 0 1;
#X connect 57 0 39 0;
#X connect 58 0 1 1;
#X connect 58 0 39 0;
#X connect 59 0 42 0;
#X connect 60 0 43 0;
#X connect 61 0 44 0;
#X connect 62 0 45 0;
#X connect 63 0 46 0;
#X connect 64 0 47 0;
#X connect 65 0 48 0;
#X connect 66 0 49 0;
#X connect 67 0 50 0;
#X connect 68 0 51 0;
#X connect 69 0 52 0;
#X connect 70 0 53 0;
#X connect 71 0 54 0;
#X connect 72 0 55 0;
#X connect 73 0 56 0;
#X connect 74 0 57 0;
#X connect 75 0 58 0;
#X connect 76 0 39 0;
#X restore 370 31 pd solo;
#N canvas 878 212 724 744 tracks 0;
#X obj 9 -62 r play;
#X obj 9 -39 bng 15 250 50 0 empty empty empty 17 7 0 10 -262144 -1
-1;
#X obj 9 -17 s bang;
#X obj 76 -60 r bang;
#X obj 76 -18 s track01;
#X obj 77 9 r bang;
#X obj 78 76 r bang;
#X obj 79 145 r bang;
#X obj 79 211 r bang;
#X obj 80 277 r bang;
#X obj 77 51 s track02;
#X obj 78 118 s track03;
#X obj 79 187 s track04;
#X obj 79 253 s track05;
#X obj 80 319 s track06;
#X obj 76 -39 symbol audio/BASSMARTIN.wav;
#X obj 77 31 symbol audio/DRUMZ.wav;
#X obj 78 97 symbol audio/GUITGLEN.wav;
#X obj 79 165 symbol audio/GUITSAM.wav;
#X obj 79 231 symbol audio/VOXMARTIN1.wav;
#X obj 80 298 symbol audio/VOXMARTIN2.wav;
#X connect 0 0 1 0;
#X connect 1 0 2 0;
#X connect 3 0 15 0;
#X connect 5 0 16 0;
#X connect 6 0 17 0;
#X connect 7 0 18 0;
#X connect 8 0 19 0;
#X connect 9 0 20 0;
#X connect 15 0 4 0;
#X connect 16 0 10 0;
#X connect 17 0 11 0;
#X connect 18 0 12 0;
#X connect 19 0 13 0;
#X connect 20 0 14 0;
#X restore 427 30 pd tracks;
#X obj 123 106 r track01;
#X obj 123 149 throw~ audioR;
#X obj 96 168 throw~ audioL;
#N canvas 498 192 515 370 eqL 0;
#N canvas 502 340 500 315 using 0;
#X obj 67 239 outlet~;
#X obj 65 134 biquad~;
#X obj 66 154 biquad~;
#X obj 66 174 biquad~;
#X obj 194 134 biquad~;
#X obj 193 154 biquad~;
#X obj 194 174 biquad~;
#X obj 163 111 bandpass 1175 490;
#X obj 305 111 highpass 2350 130;
#X obj 334 134 biquad~;
#X obj 334 154 biquad~;
#X obj 163 25 loadbang;
#X obj 193 239 outlet~;
#X obj 335 239 outlet~;
#X obj 66 25 inlet~ signal;
#X obj 35 110 lowpass 500 310;
#X connect 1 0 2 0;
#X connect 2 0 3 0;
#X connect 3 0 0 0;
#X connect 4 0 5 0;
#X connect 5 0 6 0;
#X connect 6 0 12 0;
#X connect 7 0 4 0;
#X connect 7 0 5 0;
#X connect 7 0 6 0;
#X connect 8 0 9 0;
#X connect 8 0 10 0;
#X connect 9 0 10 0;
#X connect 10 0 13 0;
#X connect 11 0 7 0;
#X connect 11 0 8 0;
#X connect 11 0 15 0;
#X connect 14 0 1 0;
#X connect 14 0 4 0;
#X connect 14 0 9 0;
#X connect 15 0 1 0;
#X connect 15 0 2 0;
#X connect 15 0 3 0;
#X restore 330 109 pd using GGEE filter objects;
#N canvas 494 122 560 501 output_mixer 0;
#X obj 270 -19 inlet~ bass;
#X obj 360 -19 inlet~ mids;
#X obj 446 -19 inlet~ highs;
#X obj 87 35 inlet bass;
#X obj 127 60 inlet mids;
#X obj 157 86 inlet highs;
#X obj 111 235 *~;
#X obj 141 235 *~;
#X obj 71 235 *~;
#X obj 80 114 expr ($f1 / 100) + 1;
#X obj 131 145 expr ($f1 / 100) + 1;
#X obj 159 185 expr ($f1 / 100) + 1;
#X obj 70 325 *~;
#X obj 226 107 inlet vol;
#X obj 152 305 + 1;
#X obj 64 374 outlet~;
#X connect 0 0 8 0;
#X connect 1 0 6 0;
#X connect 2 0 7 0;
#X connect 3 0 9 0;
#X connect 4 0 10 0;
#X connect 5 0 11 0;
#X connect 6 0 12 0;
#X connect 7 0 12 0;
#X connect 8 0 12 0;
#X connect 9 0 8 1;
#X connect 10 0 6 1;
#X connect 11 0 7 1;
#X connect 12 0 15 0;
#X connect 13 0 14 0;
#X connect 14 0 12 1;
#X restore 180 256 pd output_mixer;
#X obj 181 306 outlet~;
#X obj 331 83 compressor~;
#X obj 84 19 routeOSC /low /mid /high /vol;
#X obj 84 -6 r masterOSC;
#X obj 118 239 loadbang;
#X obj 330 3 inlet~;
#X connect 0 0 1 4;
#X connect 0 1 1 5;
#X connect 0 2 1 6;
#X connect 1 0 2 0;
#X connect 3 0 0 0;
#X connect 4 0 1 0;
#X connect 4 1 1 1;
#X connect 4 2 1 2;
#X connect 4 3 1 3;
#X connect 5 0 4 0;
#X connect 6 0 1 0;
#X connect 6 0 1 1;
#X connect 6 0 1 2;
#X connect 6 0 1 3;
#X connect 7 0 3 0;
#X restore 114 651 pd eqL;
#N canvas 498 192 515 370 eqR 0;
#N canvas 502 340 500 315 using 0;
#X obj 67 239 outlet~;
#X obj 65 134 biquad~;
#X obj 66 154 biquad~;
#X obj 66 174 biquad~;
#X obj 194 134 biquad~;
#X obj 193 154 biquad~;
#X obj 194 174 biquad~;
#X obj 163 111 bandpass 1175 490;
#X obj 305 111 highpass 2350 130;
#X obj 334 134 biquad~;
#X obj 334 154 biquad~;
#X obj 163 25 loadbang;
#X obj 193 239 outlet~;
#X obj 335 239 outlet~;
#X obj 66 25 inlet~ signal;
#X obj 35 110 lowpass 500 310;
#X connect 1 0 2 0;
#X connect 2 0 3 0;
#X connect 3 0 0 0;
#X connect 4 0 5 0;
#X connect 5 0 6 0;
#X connect 6 0 12 0;
#X connect 7 0 4 0;
#X connect 7 0 5 0;
#X connect 7 0 6 0;
#X connect 8 0 9 0;
#X connect 8 0 10 0;
#X connect 9 0 10 0;
#X connect 10 0 13 0;
#X connect 11 0 7 0;
#X connect 11 0 8 0;
#X connect 11 0 15 0;
#X connect 14 0 1 0;
#X connect 14 0 4 0;
#X connect 14 0 9 0;
#X connect 15 0 1 0;
#X connect 15 0 2 0;
#X connect 15 0 3 0;
#X restore 330 109 pd using GGEE filter objects;
#N canvas 494 122 560 501 output_mixer 0;
#X obj 270 -19 inlet~ bass;
#X obj 360 -19 inlet~ mids;
#X obj 446 -19 inlet~ highs;
#X obj 87 35 inlet bass;
#X obj 127 60 inlet mids;
#X obj 157 86 inlet highs;
#X obj 111 235 *~;
#X obj 141 235 *~;
#X obj 71 235 *~;
#X obj 80 114 expr ($f1 / 100) + 1;
#X obj 131 145 expr ($f1 / 100) + 1;
#X obj 159 185 expr ($f1 / 100) + 1;
#X obj 70 325 *~;
#X obj 226 107 inlet vol;
#X obj 152 305 + 1;
#X obj 64 374 outlet~;
#X connect 0 0 8 0;
#X connect 1 0 6 0;
#X connect 2 0 7 0;
#X connect 3 0 9 0;
#X connect 4 0 10 0;
#X connect 5 0 11 0;
#X connect 6 0 12 0;
#X connect 7 0 12 0;
#X connect 8 0 12 0;
#X connect 9 0 8 1;
#X connect 10 0 6 1;
#X connect 11 0 7 1;
#X connect 12 0 15 0;
#X connect 13 0 14 0;
#X connect 14 0 12 1;
#X restore 180 256 pd output_mixer;
#X obj 181 306 outlet~;
#X obj 331 83 compressor~;
#X obj 84 19 routeOSC /low /mid /high /vol;
#X obj 84 -6 r masterOSC;
#X obj 118 239 loadbang;
#X obj 330 3 inlet~;
#X connect 0 0 1 4;
#X connect 0 1 1 5;
#X connect 0 2 1 6;
#X connect 1 0 2 0;
#X connect 3 0 0 0;
#X connect 4 0 1 0;
#X connect 4 1 1 1;
#X connect 4 2 1 2;
#X connect 4 3 1 3;
#X connect 5 0 4 0;
#X connect 6 0 1 0;
#X connect 6 0 1 1;
#X connect 6 0 1 2;
#X connect 6 0 1 3;
#X connect 7 0 3 0;
#X restore 157 652 pd eqR;
#X obj 114 609 catch~ audioL;
#X obj 157 629 catch~ audioR;
#X obj 214 127 track;
#X obj 241 149 throw~ audioR;
#X obj 214 168 throw~ audioL;
#X obj 329 127 track;
#X obj 356 149 throw~ audioR;
#X obj 329 168 throw~ audioL;
#X obj 446 127 track;
#X obj 473 149 throw~ audioR;
#X obj 446 168 throw~ audioL;
#X obj 565 127 track;
#X obj 592 149 throw~ audioR;
#X obj 565 168 throw~ audioL;
#X obj 686 127 track;
#X obj 713 149 throw~ audioR;
#X obj 686 168 throw~ audioL;
#X obj 214 85 r trackOSC2;
#X obj 329 85 r trackOSC3;
#X obj 446 85 r trackOSC4;
#X obj 565 85 r trackOSC5;
#X obj 686 85 r trackOSC6;
#X obj 241 106 r track02;
#X obj 356 106 r track03;
#X obj 473 106 r track04;
#X obj 592 106 r track05;
#X obj 713 106 r track06;
#X obj 96 251 track;
#X obj 123 273 throw~ audioR;
#X obj 96 292 throw~ audioL;
#X obj 214 251 track;
#X obj 241 273 throw~ audioR;
#X obj 214 292 throw~ audioL;
#X obj 329 251 track;
#X obj 356 273 throw~ audioR;
#X obj 329 292 throw~ audioL;
#X obj 446 251 track;
#X obj 473 273 throw~ audioR;
#X obj 446 292 throw~ audioL;
#X obj 565 251 track;
#X obj 592 273 throw~ audioR;
#X obj 565 292 throw~ audioL;
#X obj 686 251 track;
#X obj 713 273 throw~ audioR;
#X obj 686 292 throw~ audioL;
#X obj 96 209 r trackOSC7;
#X obj 123 230 r track07;
#X obj 214 209 r trackOSC8;
#X obj 241 230 r track08;
#X obj 329 209 r trackOSC9;
#X obj 356 230 r track09;
#X obj 446 209 r trackOSC10;
#X obj 473 230 r track10;
#X obj 565 209 r trackOSC11;
#X obj 592 230 r track11;
#X obj 686 209 r trackOSC12;
#X obj 713 231 r track12;
#X obj 96 375 track;
#X obj 123 397 throw~ audioR;
#X obj 96 416 throw~ audioL;
#X obj 214 375 track;
#X obj 241 397 throw~ audioR;
#X obj 214 416 throw~ audioL;
#X obj 329 375 track;
#X obj 356 397 throw~ audioR;
#X obj 329 416 throw~ audioL;
#X obj 446 375 track;
#X obj 473 397 throw~ audioR;
#X obj 446 416 throw~ audioL;
#X obj 565 375 track;
#X obj 592 397 throw~ audioR;
#X obj 565 416 throw~ audioL;
#X obj 686 375 track;
#X obj 713 397 throw~ audioR;
#X obj 686 416 throw~ audioL;
#X obj 96 499 track;
#X obj 123 521 throw~ audioR;
#X obj 96 540 throw~ audioL;
#X obj 214 499 track;
#X obj 241 521 throw~ audioR;
#X obj 214 540 throw~ audioL;
#X obj 329 499 track;
#X obj 356 521 throw~ audioR;
#X obj 329 540 throw~ audioL;
#X obj 446 499 track;
#X obj 473 521 throw~ audioR;
#X obj 446 540 throw~ audioL;
#X obj 565 499 track;
#X obj 592 521 throw~ audioR;
#X obj 565 540 throw~ audioL;
#X obj 686 499 track;
#X obj 713 521 throw~ audioR;
#X obj 686 540 throw~ audioL;
#X obj 96 333 r trackOSC13;
#X obj 123 354 r track13;
#X obj 214 333 r trackOSC14;
#X obj 241 354 r track14;
#X obj 329 333 r trackOSC15;
#X obj 356 354 r track15;
#X obj 446 333 r trackOSC16;
#X obj 473 354 r track16;
#X obj 565 333 r trackOSC17;
#X obj 592 354 r track17;
#X obj 686 333 r trackOSC18;
#X obj 713 354 r track18;
#X obj 96 457 r trackOSC19;
#X obj 123 478 r track19;
#X obj 214 457 r trackOSC20;
#X obj 241 478 r track20;
#X obj 329 457 r trackOSC21;
#X obj 356 478 r track21;
#X obj 446 457 r trackOSC22;
#X obj 473 478 r track22;
#X obj 565 457 r trackOSC23;
#X obj 592 479 r track23;
#X obj 686 457 r trackOSC24;
#X obj 713 479 r track24;
#X connect 0 0 1 0;
#X connect 4 0 5 0;
#X connect 5 0 11 0;
#X connect 5 1 10 0;
#X connect 6 0 0 0;
#X connect 9 0 5 1;
#X connect 12 0 2 0;
#X connect 13 0 2 1;
#X connect 14 0 12 0;
#X connect 15 0 13 0;
#X connect 16 0 18 0;
#X connect 16 1 17 0;
#X connect 19 0 21 0;
#X connect 19 1 20 0;
#X connect 22 0 24 0;
#X connect 22 1 23 0;
#X connect 25 0 27 0;
#X connect 25 1 26 0;
#X connect 28 0 30 0;
#X connect 28 1 29 0;
#X connect 31 0 16 0;
#X connect 32 0 19 0;
#X connect 33 0 22 0;
#X connect 34 0 25 0;
#X connect 35 0 28 0;
#X connect 36 0 16 1;
#X connect 37 0 19 1;
#X connect 38 0 22 1;
#X connect 39 0 25 1;
#X connect 40 0 28 1;
#X connect 41 0 43 0;
#X connect 41 1 42 0;
#X connect 44 0 46 0;
#X connect 44 1 45 0;
#X connect 47 0 49 0;
#X connect 47 1 48 0;
#X connect 50 0 52 0;
#X connect 50 1 51 0;
#X connect 53 0 55 0;
#X connect 53 1 54 0;
#X connect 56 0 58 0;
#X connect 56 1 57 0;
#X connect 59 0 41 0;
#X connect 60 0 41 1;
#X connect 61 0 44 0;
#X connect 62 0 44 1;
#X connect 63 0 47 0;
#X connect 64 0 47 1;
#X connect 65 0 50 0;
#X connect 66 0 50 1;
#X connect 67 0 53 0;
#X connect 68 0 53 1;
#X connect 69 0 56 0;
#X connect 70 0 56 1;
#X connect 71 0 73 0;
#X connect 71 1 72 0;
#X connect 74 0 76 0;
#X connect 74 1 75 0;
#X connect 77 0 79 0;
#X connect 77 1 78 0;
#X connect 80 0 82 0;
#X connect 80 1 81 0;
#X connect 83 0 85 0;
#X connect 83 1 84 0;
#X connect 86 0 88 0;
#X connect 86 1 87 0;
#X connect 89 0 91 0;
#X connect 89 1 90 0;
#X connect 92 0 94 0;
#X connect 92 1 93 0;
#X connect 95 0 97 0;
#X connect 95 1 96 0;
#X connect 98 0 100 0;
#X connect 98 1 99 0;
#X connect 101 0 103 0;
#X connect 101 1 102 0;
#X connect 104 0 106 0;
#X connect 104 1 105 0;
#X connect 107 0 71 0;
#X connect 108 0 71 1;
#X connect 109 0 74 0;
#X connect 110 0 74 1;
#X connect 111 0 77 0;
#X connect 112 0 77 1;
#X connect 113 0 80 0;
#X connect 114 0 80 1;
#X connect 115 0 83 0;
#X connect 116 0 83 1;
#X connect 117 0 86 0;
#X connect 118 0 86 1;
#X connect 119 0 89 0;
#X connect 120 0 89 1;
#X connect 121 0 92 0;
#X connect 122 0 92 1;
#X connect 123 0 95 0;
#X connect 124 0 95 1;
#X connect 125 0 98 0;
#X connect 126 0 98 1;
#X connect 127 0 101 0;
#X connect 128 0 101 1;
#X connect 129 0 104 0;
#X connect 130 0 104 1;
