#N canvas 588 163 842 848 10;
#X obj 67 286 inlet;
#X obj 221 -34 inlet;
#X obj 221 -7 openpanel;
#X obj 221 75 soundfiler;
#X floatatom 239 179 12 0 0 0 - - -;
#X floatatom 237 99 20 0 0 0 - - -;
#X obj 221 240 phasor~;
#N canvas 0 22 450 278 (subpatch) 0;
#X array \$0-channelL 9.744e+06 float 2;
#X coords 0 1 9.744e+06 -1 200 140 1;
#X restore 527 16 graph;
#N canvas 0 22 450 278 (subpatch) 0;
#X array \$0-channelR 9.744e+06 float 2;
#X coords 0 1 9.744e+06 -1 200 140 1;
#X restore 526 177 graph;
#X msg 260 219 0;
#X obj 221 286 *~;
#X msg 167 222 0;
#X obj 410 303 snapshot~;
#X floatatom 410 328 12 0 0 0 - - -;
#X floatatom 410 377 5 0 0 0 - - -;
#X obj 410 277 metro 50;
#X obj 410 351 /;
#X obj 140 159 t b b;
#N canvas 1247 465 576 81 eq[text 0;
#N canvas 542 168 489 304 using 0;
#X obj 65 134 biquad~;
#X obj 66 154 biquad~;
#X obj 66 174 biquad~;
#X obj 194 134 biquad~;
#X obj 193 154 biquad~;
#X obj 194 174 biquad~;
#X obj 163 111 bandpass 1175 490;
#X obj 305 111 highpass 2350 130;
#X obj 334 134 biquad~;
#X obj 334 154 biquad~;
#X obj 163 25 loadbang;
#X obj 35 110 lowpass 500 310;
#X obj 35 43 compressor~;
#X obj 35 20 r~ \$0-sigL;
#X obj 67 239 s~ \$0-bassL;
#X obj 193 239 s~ \$0-midsL;
#X obj 335 239 s~ \$0-highsL;
#X connect 0 0 1 0;
#X connect 1 0 2 0;
#X connect 2 0 14 0;
#X connect 3 0 4 0;
#X connect 4 0 5 0;
#X connect 5 0 15 0;
#X connect 6 0 3 0;
#X connect 6 0 4 0;
#X connect 6 0 5 0;
#X connect 7 0 8 0;
#X connect 7 0 9 0;
#X connect 8 0 9 0;
#X connect 9 0 16 0;
#X connect 10 0 6 0;
#X connect 10 0 7 0;
#X connect 10 0 11 0;
#X connect 11 0 0 0;
#X connect 11 0 1 0;
#X connect 11 0 2 0;
#X connect 12 0 0 0;
#X connect 12 0 3 0;
#X connect 12 0 8 0;
#X connect 13 0 12 0;
#X restore 10 -3 pd using GGEE filter objects Left;
#N canvas 544 160 489 304 using 0;
#X obj 65 134 biquad~;
#X obj 66 154 biquad~;
#X obj 66 174 biquad~;
#X obj 194 134 biquad~;
#X obj 193 154 biquad~;
#X obj 194 174 biquad~;
#X obj 163 111 bandpass 1175 490;
#X obj 305 111 highpass 2350 130;
#X obj 334 134 biquad~;
#X obj 334 154 biquad~;
#X obj 163 25 loadbang;
#X obj 35 110 lowpass 500 310;
#X obj 35 43 compressor~;
#X obj 35 20 r~ \$0-sigR;
#X obj 67 239 s~ \$0-bassR;
#X obj 193 239 s~ \$0-midsR;
#X obj 335 239 s~ \$0-highsR;
#X connect 0 0 1 0;
#X connect 1 0 2 0;
#X connect 2 0 14 0;
#X connect 3 0 4 0;
#X connect 4 0 5 0;
#X connect 5 0 15 0;
#X connect 6 0 3 0;
#X connect 6 0 4 0;
#X connect 6 0 5 0;
#X connect 7 0 8 0;
#X connect 7 0 9 0;
#X connect 8 0 9 0;
#X connect 9 0 16 0;
#X connect 10 0 6 0;
#X connect 10 0 7 0;
#X connect 10 0 11 0;
#X connect 11 0 0 0;
#X connect 11 0 1 0;
#X connect 11 0 2 0;
#X connect 12 0 0 0;
#X connect 12 0 3 0;
#X connect 12 0 8 0;
#X connect 13 0 12 0;
#X restore 224 -2 pd using GGEE filter objects Right;
#N canvas 993 112 766 622 output_mixer 0;
#X obj 310 227 *~;
#X obj 340 227 *~;
#X obj 270 227 *~;
#X obj 279 106 expr ($f1 / 100) + 1;
#X obj 330 137 expr ($f1 / 100) + 1;
#X obj 358 177 expr ($f1 / 100) + 1;
#X obj 221 346 *~;
#X obj 303 329 + 1;
#X obj 286 27 r \$0-lowOSC;
#X obj 326 52 r \$0-midOSC;
#X obj 356 78 r \$0-highOSC;
#X obj 425 99 r \$0-volOSC;
#X obj 211 60 loadbang;
#X obj 220 410 *~;
#X obj 303 351 r \$0-muteOSC;
#X obj 303 372 - 1;
#X obj 303 393 abs;
#X obj 102 147 receive mixer_solo_fac;
#X obj 102 174 nbx 5 14 -1e+37 1e+37 0 0 empty empty empty 0 -8 0 10
-262144 -1 -1 0 256;
#X obj 38 147 nbx 5 14 -1e+37 1e+37 0 0 empty empty empty 0 -8 0 10
-262144 -1 -1 1 256;
#X obj 38 181 bng 15 250 50 0 empty empty empty 17 7 0 10 -262144 -1
-1;
#X obj 28 216 +;
#X obj 28 243 min 1;
#X obj 28 270 nbx 5 14 -1e+37 1e+37 0 0 empty empty empty 0 -8 0 10
-262144 -1 -1 1 256;
#X obj 28 120 r \$0-soloOSC;
#X obj 225 294 *~;
#X msg 392 306 0;
#X obj 392 285 loadbang;
#X obj 270 -19 r~ \$0-bassL;
#X obj 360 -19 r~ \$0-midsL;
#X obj 445 -19 r~ \$0-highsL;
#X obj 219 434 s~ \$0-signalL;
#X connect 0 0 25 1;
#X connect 1 0 25 1;
#X connect 2 0 25 1;
#X connect 3 0 2 1;
#X connect 4 0 0 1;
#X connect 5 0 1 1;
#X connect 6 0 13 1;
#X connect 7 0 6 0;
#X connect 8 0 3 0;
#X connect 9 0 4 0;
#X connect 10 0 5 0;
#X connect 11 0 7 0;
#X connect 12 0 3 0;
#X connect 12 0 4 0;
#X connect 12 0 5 0;
#X connect 12 0 7 0;
#X connect 13 0 31 0;
#X connect 14 0 15 0;
#X connect 15 0 16 0;
#X connect 16 0 13 0;
#X connect 17 0 18 0;
#X connect 17 0 21 1;
#X connect 17 0 20 0;
#X connect 20 0 21 0;
#X connect 21 0 22 0;
#X connect 22 0 23 0;
#X connect 22 0 25 0;
#X connect 24 0 19 0;
#X connect 24 0 21 0;
#X connect 25 0 6 1;
#X connect 26 0 15 0;
#X connect 27 0 26 0;
#X connect 28 0 2 0;
#X connect 29 0 0 0;
#X connect 30 0 1 0;
#X restore 10 20 pd output_mixer Left;
#N canvas 993 112 766 622 output_mixer 0;
#X obj 310 227 *~;
#X obj 340 227 *~;
#X obj 270 227 *~;
#X obj 279 106 expr ($f1 / 100) + 1;
#X obj 330 137 expr ($f1 / 100) + 1;
#X obj 358 177 expr ($f1 / 100) + 1;
#X obj 221 346 *~;
#X obj 303 329 + 1;
#X obj 286 27 r \$0-lowOSC;
#X obj 326 52 r \$0-midOSC;
#X obj 356 78 r \$0-highOSC;
#X obj 425 99 r \$0-volOSC;
#X obj 211 60 loadbang;
#X obj 220 410 *~;
#X obj 303 351 r \$0-muteOSC;
#X obj 303 372 - 1;
#X obj 303 393 abs;
#X obj 102 147 receive mixer_solo_fac;
#X obj 102 174 nbx 5 14 -1e+37 1e+37 0 0 empty empty empty 0 -8 0 10
-262144 -1 -1 0 256;
#X obj 38 147 nbx 5 14 -1e+37 1e+37 0 0 empty empty empty 0 -8 0 10
-262144 -1 -1 1 256;
#X obj 38 181 bng 15 250 50 0 empty empty empty 17 7 0 10 -262144 -1
-1;
#X obj 28 216 +;
#X obj 28 243 min 1;
#X obj 28 270 nbx 5 14 -1e+37 1e+37 0 0 empty empty empty 0 -8 0 10
-262144 -1 -1 1 256;
#X obj 28 120 r \$0-soloOSC;
#X obj 225 294 *~;
#X msg 392 306 0;
#X obj 392 285 loadbang;
#X obj 271 -19 r~ \$0-bassR;
#X obj 360 -19 r~ \$0-midsR;
#X obj 446 -19 r~ \$0-highsR;
#X obj 219 434 s~ \$0-signalR;
#X connect 0 0 25 1;
#X connect 1 0 25 1;
#X connect 2 0 25 1;
#X connect 3 0 2 1;
#X connect 4 0 0 1;
#X connect 5 0 1 1;
#X connect 6 0 13 1;
#X connect 7 0 6 0;
#X connect 8 0 3 0;
#X connect 9 0 4 0;
#X connect 10 0 5 0;
#X connect 11 0 7 0;
#X connect 12 0 3 0;
#X connect 12 0 4 0;
#X connect 12 0 5 0;
#X connect 12 0 7 0;
#X connect 13 0 31 0;
#X connect 14 0 15 0;
#X connect 15 0 16 0;
#X connect 16 0 13 0;
#X connect 17 0 18 0;
#X connect 17 0 21 1;
#X connect 17 0 20 0;
#X connect 20 0 21 0;
#X connect 21 0 22 0;
#X connect 22 0 23 0;
#X connect 22 0 25 0;
#X connect 24 0 19 0;
#X connect 24 0 21 0;
#X connect 25 0 6 1;
#X connect 26 0 15 0;
#X connect 27 0 26 0;
#X connect 28 0 2 0;
#X connect 29 0 0 0;
#X connect 30 0 1 0;
#X restore 224 21 pd output_mixer Right;
#X restore 40 382 pd eq[text for expanding];
#X obj 410 254 tgl 15 0 empty empty empty 17 7 0 10 -262144 -1 -1 1
1;
#X obj 39 429 outlet~;
#X obj 410 233 loadbang;
#X obj 27 195 float \$1;
#N canvas 5 96 667 137 routeOSC 0;
#X obj 17 70 s \$0-lowOSC;
#X obj 17 5 r \$0-osc;
#X obj 93 70 s \$0-midOSC;
#X obj 167 70 s \$0-highOSC;
#X obj 252 70 s \$0-volOSC;
#X obj 332 70 s \$0-muteOSC;
#X obj 416 71 s \$0-soloOSC;
#X obj 17 29 routeOSC /low /mid /high /vol /mute /solo /pan;
#X obj 502 71 s \$0-panOSC;
#X connect 1 0 7 0;
#X connect 7 0 0 0;
#X connect 7 1 2 0;
#X connect 7 2 3 0;
#X connect 7 3 4 0;
#X connect 7 4 5 0;
#X connect 7 5 6 0;
#X connect 7 6 8 0;
#X restore 67 337 pd routeOSC;
#X obj 52 140 r play;
#X obj 140 104 r stop;
#X obj 83 172 r pause;
#X obj 238 123 s \$0-sampleSize;
#X obj 236 262 r \$0-sampleSize;
#X obj 486 334 r \$0-sampleSize;
#X obj 284 -28 loadbang;
#X obj 284 -7 f \$0;
#X obj 221 26 pack s f;
#X msg 221 50 read -resize \$1 \$2-channelL \$2-channelR;
#X obj 410 399 s position_out;
#X obj 67 308 s \$0-osc;
#X obj 221 151 expr 48000 / $f1;
#X obj 348 459 hsl 128 15 0 1 0 0 empty empty empty -2 -8 0 10 -262144
-1 -1 6350 1;
#X obj 345 430 r \$0-panOSC;
#X obj 221 566 *~;
#X obj 295 567 *~;
#X obj 249 567 line~;
#X obj 325 567 line~;
#X msg 249 545 \$1 250;
#X msg 325 544 \$1 250;
#X obj 249 524 expr abs($f1-1);
#X obj 278 447 loadbang;
#X obj 221 592 s~ \$0-sigL;
#X obj 294 593 s~ \$0-sigR;
#X obj 125 429 outlet~;
#X obj 39 404 r~ \$0-signalL;
#X obj 125 404 r~ \$0-signalR;
#X obj 229 345 tabread4~ \$0-channelL;
#X obj 273 368 tabread4~ \$0-channelR;
#X msg 478 442 0.5;
#X obj 478 422 loadbang;
#X obj 301 223 r position_in;
#X obj 128 196 bng 15 250 50 0 empty empty empty 17 7 0 10 -262144
-1 -1;
#X obj 42 167 bng 15 250 50 0 empty empty empty 17 7 0 10 -262144 -1
-1;
#X obj 140 131 bng 15 250 50 0 empty empty empty 17 7 0 10 -262144
-1 -1;
#X connect 0 0 35 0;
#X connect 1 0 32 0;
#X connect 2 0 32 0;
#X connect 3 0 5 0;
#X connect 3 0 36 0;
#X connect 4 0 22 0;
#X connect 5 0 27 0;
#X connect 6 0 10 0;
#X connect 9 0 6 1;
#X connect 10 0 12 0;
#X connect 10 0 52 0;
#X connect 10 0 53 0;
#X connect 11 0 6 0;
#X connect 12 0 13 0;
#X connect 13 0 16 0;
#X connect 14 0 34 0;
#X connect 15 0 12 0;
#X connect 16 0 14 0;
#X connect 17 0 9 0;
#X connect 17 1 11 0;
#X connect 19 0 15 0;
#X connect 21 0 19 0;
#X connect 22 0 6 0;
#X connect 24 0 58 0;
#X connect 25 0 59 0;
#X connect 26 0 57 0;
#X connect 28 0 10 1;
#X connect 29 0 16 1;
#X connect 30 0 31 0;
#X connect 31 0 32 1;
#X connect 32 0 33 0;
#X connect 33 0 3 0;
#X connect 36 0 4 0;
#X connect 36 0 6 0;
#X connect 37 0 44 0;
#X connect 37 0 45 0;
#X connect 38 0 45 0;
#X connect 38 0 44 0;
#X connect 39 0 47 0;
#X connect 40 0 48 0;
#X connect 41 0 39 1;
#X connect 42 0 40 1;
#X connect 43 0 41 0;
#X connect 44 0 42 0;
#X connect 45 0 43 0;
#X connect 46 0 45 0;
#X connect 46 0 44 0;
#X connect 50 0 20 0;
#X connect 51 0 49 0;
#X connect 52 0 39 0;
#X connect 53 0 40 0;
#X connect 54 0 37 0;
#X connect 55 0 54 0;
#X connect 56 0 6 1;
#X connect 57 0 11 0;
#X connect 58 0 22 0;
#X connect 59 0 17 0;
